Coordinates
version=1
nRows=17
nColumns=36
inDegrees=yes

Units are S.I. units (second, meters, Newtons, ...)
If the header above contains a line with 'inDegrees', this indicates whether rotational values are in degrees (yes) or radians (no).

endheader
time	pelvis_tilt	pelvis_list	pelvis_rotation	pelvis_tx	pelvis_ty	pelvis_tz	hip_flexion_r	hip_adduction_r	hip_rotation_r	knee_angle_r	knee_angle_r_beta	ankle_angle_r	subtalar_angle_r	mtp_angle_r	hip_flexion_l	hip_adduction_l	hip_rotation_l	knee_angle_l	knee_angle_l_beta	ankle_angle_l	subtalar_angle_l	mtp_angle_l	lumbar_extension	lumbar_bending	lumbar_rotation	arm_flex_r	arm_add_r	arm_rot_r	elbow_flex_r	pro_sup_r	arm_flex_l	arm_add_l	arm_rot_l	elbow_flex_l	pro_sup_l
      0.00000000	     -9.17477823	     -2.43592084	      1.92141335	      0.73854360	      1.25032253	      0.05738390	      6.49209641	      2.49850865	      5.98879922	      0.34899891	      0.00609118	     -1.66744207	    -17.66731656	     -5.73677496	      7.41847012	     -1.58137690	      4.95842142	      1.15475931	      0.02015435	      1.27585418	    -13.10674630	     -5.73677496	     10.05162562	      1.86505310	      1.88247330	     -3.27241945	     -8.25946329	      3.50405123	     18.14281522	     89.41457351	     -3.26491891	     -6.90076006	      4.31607303	     15.10927890	     88.26246920
      0.01666670	     -9.52367718	     -2.06981575	      0.91252578	      0.73583028	      1.24795159	      0.05816555	      6.96132612	      2.25622137	      6.75721648	      0.22675143	      0.00395756	      0.01224172	    -17.44906546	     -6.81240488	      7.52350801	     -1.28037277	      4.59384961	      0.43497150	      0.00759168	      2.31652630	    -11.68043102	     -6.81240488	     10.95338664	      1.62709249	      2.56641231	     -3.01023756	     -8.52130470	      4.44397328	     17.12278602	     94.45563169	     -3.88774094	     -6.88960290	      4.13634621	     14.64386822	     91.74516583
      0.03333330	     -8.33125070	     -1.95344116	      0.78784573	      0.73342034	      1.25233609	      0.05787149	      5.79294852	      2.22738897	      6.51540334	      0.22471119	      0.00392195	      1.03167299	    -16.62456467	     -6.99224680	      6.32703906	     -1.06791429	      3.54994131	      0.34039203	      0.00594096	      1.78363991	    -11.50389712	     -6.99224680	      9.23474909	      1.53351319	      2.32305970	     -2.47723379	     -8.84226363	      6.68104138	     17.13252897	     93.63400882	     -3.22951820	     -6.95831298	      5.89164286	     14.29400505	     90.75073722
      0.05000000	     -7.10958534	     -1.82220135	      0.84631636	      0.73074260	      1.25100836	      0.05783250	      4.71709934	      2.12916355	      5.64747857	      0.22721359	      0.00396563	      1.66339292	    -16.08542069	     -7.18344609	      5.17403743	     -0.83960837	      2.79854312	      0.30814868	      0.00537821	      1.69926596	    -11.33364705	     -7.18344609	      7.22006264	      1.35985048	      2.20844466	     -1.88464874	     -9.13437575	      8.92332542	     17.42017307	     91.60476155	     -2.55414634	     -7.08650455	      7.56025546	     14.43677647	     88.65932184
      0.06666670	     -5.98064795	     -1.60178208	      0.88723275	      0.72859220	      1.25239202	      0.05745940	      3.61952228	      1.92711568	      4.98968244	      0.24082808	      0.00420324	      2.71735373	    -15.04119184	     -7.26369860	      4.06610822	     -0.52817694	      2.50666121	      0.29976396	      0.00523187	      1.25105116	    -11.25028341	     -7.26369860	      5.38911840	      1.12447547	      2.30301330	     -1.38070953	     -9.26846292	      9.05049683	     17.63994569	     92.65238955	     -1.89556248	     -7.05418959	      7.73425625	     14.57892357	     89.61940627
      0.08333330	     -5.14106736	     -1.40402158	      0.81430224	      0.72704512	      1.25363655	      0.05782759	      2.84188982	      1.76453771	      4.79050102	      0.25540060	      0.00445758	      2.83068347	    -15.04464208	     -7.28594815	      3.30482849	     -0.32970245	      2.23513467	      0.29125053	      0.00508328	      1.16755930	    -11.13028036	     -7.28594815	      3.92753279	      0.85475358	      2.52734170	     -1.04234770	     -9.07685950	      9.13218874	     17.97049378	     91.68635017	     -1.50475320	     -7.13871709	      7.68860181	     14.90694439	     88.70351679
      0.10000000	     -4.49554290	     -1.30912474	      0.85452065	      0.72574506	      1.25443835	      0.05787157	      2.20418638	      1.69762861	      4.51853540	      0.27240796	      0.00475442	      2.92178293	    -15.02998091	     -7.31628302	      2.72224767	     -0.24655255	      2.12941065	      0.28200485	      0.00492191	      1.05824517	    -11.06022812	     -7.31628302	      2.75783822	      0.69577758	      2.69843625	     -0.77865555	     -8.95300924	      9.29356383	     18.19301949	     89.83710176	     -1.10886862	     -7.19499478	      7.71292719	     15.22291760	     87.02440571
      0.11666670	     -4.06537956	     -1.22239182	      0.91735812	      0.72492033	      1.25523589	      0.05804545	      1.74907465	      1.61204255	      4.22407470	      0.29306140	      0.00511489	      2.93341401	    -14.98353434	     -7.34992560	      2.33493278	     -0.18443091	      2.16040908	      0.27576284	      0.00481297	      0.83729656	    -11.14491544	     -7.34992560	      1.96910884	      0.56600176	      2.77334905	     -0.47906687	     -9.00990872	     10.68755289	     18.13213238	     90.74553902	     -0.70473608	     -7.46864513	      9.56122543	     15.20682421	     88.06449746
      0.13333330	     -3.68330522	     -1.16041475	      0.93259880	      0.72408845	      1.25562322	      0.05809702	      1.35985296	      1.57422329	      4.15111668	      0.31048053	      0.00541891	      2.74013443	    -15.32019532	     -7.37360601	      2.00209083	     -0.15954432	      2.00529473	      0.26842735	      0.00468494	      0.88494503	    -10.91698700	     -7.37360601	      1.19017146	      0.44735865	      2.91523784	     -0.35626887	     -8.87171560	     10.64845308	     18.28827085	     88.72288153	     -0.43389204	     -7.48532311	      9.47364861	     15.43453295	     86.19518647
      0.15000000	     -3.48761832	     -1.11346391	      0.97141527	      0.72369777	      1.25605508	      0.05829473	      1.14454950	      1.53416647	      4.08465272	      0.33111898	      0.00577912	      2.52323189	    -15.69312144	     -7.39365017	      1.81261151	     -0.13272090	      2.00887365	      0.26461232	      0.00461836	      0.70774980	    -10.97435230	     -7.39365017	      0.75741881	      0.38765911	      2.97913890	     -0.21593785	     -8.85630948	     11.29386522	     18.24062186	     89.54584143	     -0.18712604	     -7.65909373	     10.63428555	     15.44273043	     87.10591357
      0.16666670	     -3.27014815	     -1.04819722	      0.88550708	      0.72303301	      1.25344728	      0.05856828	      0.95120481	      1.48391212	      4.05660807	      0.34298652	      0.00598624	      2.27389978	    -15.94889585	     -7.43364210	      1.59592746	     -0.07107565	      1.88773700	      0.26063760	      0.00454898	      0.75675698	    -10.65223659	     -7.43364210	      0.28436822	      0.26409406	      3.19551616	     -0.09050123	     -8.89807708	     12.40976112	     18.25222890	     87.30013554	      0.06474572	     -7.83321004	     11.84301701	     15.53972499	     85.02299614
      0.18333330	     -3.08661376	     -1.03780244	      0.89065853	      0.72274341	      1.25390103	      0.05869457	      0.77298919	      1.50698469	      3.89795581	      0.35414272	      0.00618096	      2.16851665	    -16.10188869	     -7.43940732	      1.45698128	     -0.07907323	      2.09610193	      0.25765222	      0.00449688	      0.59507347	    -10.95459785	     -7.43940732	     -0.17836669	      0.21204918	      3.21073028	     -0.08942315	     -8.83204758	     12.25753086	     18.55589749	     86.10437456	      0.15329486	     -7.86095238	     11.66588573	     15.83899616	     83.90143384
      0.20000000	     -2.80729473	     -1.04691221	      0.89992702	      0.72255012	      1.25703802	      0.05847509	      0.47327465	      1.51712426	      3.69041309	      0.36545769	      0.00637844	      2.31874857	    -15.88928781	     -7.47572107	      1.13047186	     -0.12983609	      2.11556490	      0.25539464	      0.00445748	      0.77671083	    -10.65831178	     -7.47572107	     -0.76015104	      0.21795386	      3.29862651	     -0.11300805	     -8.61896055	      9.63367754	     18.83517476	     92.58851184	      0.46480009	     -7.85554328	     10.78062634	     16.06125082	     89.54678891
      0.21666670	     -2.60847684	     -1.03205302	      0.81823700	      0.72234566	      1.25736821	      0.05865505	      0.27424018	      1.51108527	      3.63409751	      0.37215654	      0.00649536	      2.27986940	    -15.94809619	     -7.47902957	      0.90117439	     -0.15689564	      1.97188663	      0.25538360	      0.00445728	      0.96446211	    -10.24003403	     -7.47902957	     -1.19700137	      0.16504497	      3.37045653	     -0.04812558	     -8.57149258	      9.86346038	     18.91684364	     90.37357196	      0.62719928	     -7.80991757	     10.74111030	     16.29948140	     87.48257642
      0.23333330	     -2.40032117	     -1.02080729	      0.81602946	      0.72205536	      1.25739946	      0.05856215	      0.05506096	      1.50196307	      3.39921535	      0.37647806	      0.00657078	      2.33667799	    -15.77058975	     -7.48265640	      0.66443836	     -0.18265654	      1.96423728	      0.25460218	      0.00444365	      1.16291996	     -9.88123788	     -7.48265640	     -1.65040103	      0.13408121	      3.36538337	     -0.02195210	     -8.54934008	     10.24986074	     19.09040533	     87.62593361	      0.74379340	     -7.79353128	     10.85999840	     16.65085840	     84.94937560
      0.25000000	     -2.63135096	     -1.00752009	      0.69911772	      0.72202155	      1.25434995	      0.05886523	      0.33103227	      1.47645235	      3.60646514	      0.39112457	      0.00682641	      2.14003302	    -16.25087793	     -7.48707167	      0.89330017	     -0.18201139	      2.29067903	      0.25890154	      0.00451868	      0.84209130	    -10.61411434	     -7.48707167	     -1.27732484	      0.14217635	      3.27886439	      0.24100285	     -8.67410848	     12.04419901	     18.50902206	     87.36876011	      0.83383758	     -7.90310457	     12.88890643	     16.20679797	     84.79636006
      0.26666670	     -2.49538894	     -1.01334553	      0.63646468	      0.72202953	      1.25716901	      0.05877862	      0.19723193	      1.49431097	      3.45022222	      0.39732785	      0.00693468	      2.22126336	    -16.02551363	     -7.49463788	      0.73118579	     -0.22851843	      2.29448502	      0.25820678	      0.00450656	      1.09580797	    -10.30279281	     -7.49463788	     -1.62243742	      0.12601662	      3.43620106	      0.18929896	     -8.52256425	     10.09424023	     18.86332278	     92.67096456	      0.95668171	     -7.93634774	     12.08689986	     16.50114999	     89.49615852
